HIERARCHY
ROOT hip
{
	OFFSET 0.000000 0.000000 0.000000 
	CHANNELS 6 Xposition Yposition Zposition Xrotation Zrotation Yrotation
	JOINT abdomen
	{
		OFFSET 0.000000 3.402643 0.000000 
		CHANNELS 3 Xrotation Zrotation Yrotation
		JOINT chest
		{
			OFFSET 0.000000 8.438565 -0.680529 
			CHANNELS 3 Xrotation Zrotation Yrotation
			JOINT neck
			{
				OFFSET 0.000000 10.207942 -0.272212 
				CHANNELS 3 Xrotation Zrotation Yrotation
				JOINT head
				{
					OFFSET 0.000000 3.130431 0.000000 
					CHANNELS 3 Xrotation Zrotation Yrotation
					End Site
					{
						OFFSET 0.000000 3.130435 0.000000 
					}
				}
			}
			JOINT lCollar
			{
				OFFSET 3.470700 6.669187 -0.816635 
				CHANNELS 3 Yrotation Zrotation Xrotation
				JOINT lShldr
				{
					OFFSET 3.198488 0.000000 0.000000 
					CHANNELS 3 Zrotation Yrotation Xrotation
					JOINT lForeArm
					{
						OFFSET 10.139888 0.000000 0.000000 
						CHANNELS 3 Yrotation Zrotation Xrotation
						JOINT lHand
						{
							OFFSET 8.370511 0.000000 0.000000 
							CHANNELS 3 Zrotation Yrotation Xrotation
							End Site
							{
								OFFSET 4.083176 0.000000 0.000000 
							}
						}
					}
				}
			}
			JOINT rCollar
			{
				OFFSET -3.470700 6.669187 -0.816635 
				CHANNELS 3 Yrotation Zrotation Xrotation
				JOINT rShldr
				{
					OFFSET -3.198488 0.000000 0.000000 
					CHANNELS 3 Zrotation Yrotation Xrotation
					JOINT rForeArm
					{
						OFFSET -10.139888 0.000000 0.000000 
						CHANNELS 3 Yrotation Zrotation Xrotation
						JOINT rHand
						{
							OFFSET -8.370511 0.000000 0.000000 
							CHANNELS 3 Zrotation Yrotation Xrotation
							End Site
							{
								OFFSET -4.083176 0.000000 0.000000 
							}
						}
					}
				}
			}
		}
	}
	JOINT lThigh
	{
		OFFSET 5.308129 -1.633274 1.361059 
		CHANNELS 3 Xrotation Zrotation Yrotation
		JOINT lShin
		{
			OFFSET -2.041588 -20.007561 0.000000 
			CHANNELS 3 Xrotation Zrotation Yrotation
			JOINT lFoot
			{
				OFFSET 0.000000 -19.190928 -1.224953 
				CHANNELS 3 Xrotation Yrotation Zrotation
				End Site
				{
					OFFSET 0.000000 -2.449906 4.627600 
				}
			}
		}
	}
	JOINT rThigh
	{
		OFFSET -5.308129 -1.633274 1.361059 
		CHANNELS 3 Xrotation Zrotation Yrotation
		JOINT rShin
		{
			OFFSET 2.041588 -20.007561 0.000000 
			CHANNELS 3 Xrotation Zrotation Yrotation
			JOINT rFoot
			{
				OFFSET 0.000000 -19.190928 -1.224953 
				CHANNELS 3 Xrotation Yrotation Zrotation
				End Site
				{
					OFFSET 0.000000 -2.449906 4.627600 
				}
			}
		}
	}
}
MOTION
Frames: 11
Frame Time: 0.016667
-0.513107 42.762497 2.527120 8.853782 2.122861 -1.827471 -17.933140 -1.105664 2.437811 27.150936 -0.747310 0.847134 -5.273445 -0.097243 -0.020321 3.331852 4.767356 0.111869 1.993405 -2.003458 -0.008156 -76.641449 6.441672 22.011484 -68.857460 -0.662723 -1.523709 -0.056156 0.043607 26.738297 -2.003062 1.991579 -0.506922 86.321213 -10.400153 7.088471 66.318748 0.176193 -0.669205 0.054348 -0.042648 29.140633 -16.062994 5.448906 2.835963 29.295675 2.982106 2.138395 -27.604795 19.598650 11.837486 -22.088749 -5.722424 2.059523 37.612949 -2.496153 -2.745943 -26.237066 -10.480983 -6.455645 
-0.834230 42.761246 2.543314 9.389551 1.820991 -1.661664 -17.895464 -1.310358 2.463980 26.849688 -0.949722 0.817993 -9.619226 0.240708 -0.118920 1.705330 4.851377 0.037152 1.993405 -2.003458 -0.008156 -74.455101 8.427613 24.639204 -71.965179 -0.693409 -1.561234 -0.073220 0.053255 24.648453 -2.003062 1.991579 -0.506922 87.284203 -12.882190 7.454058 68.555450 0.197014 -0.688561 0.050302 -0.051566 28.349615 -17.033878 6.461858 2.937072 30.132435 2.971930 2.173623 -25.787004 19.089128 10.870049 -22.667198 -5.359524 0.984728 37.697674 -2.427730 -2.790457 -26.388140 -8.615067 -5.546098 
-1.200405 42.708855 2.531596 9.982796 1.231081 -1.160120 -17.749504 -1.385842 2.201229 26.634895 -0.960247 0.680460 -14.004784 0.634850 -0.246219 0.029408 4.990233 -0.074727 1.993405 -2.003458 -0.008156 -72.500786 9.990260 26.984600 -74.975243 -0.717475 -1.617280 -0.074681 0.053901 23.085957 -2.003062 1.991579 -0.506922 88.090660 -15.322411 7.807162 71.104614 0.209480 -0.702471 0.051380 -0.052134 27.158209 -18.782742 7.760867 2.304013 32.044685 2.932415 2.303010 -23.698151 18.045607 9.607628 -23.224525 -4.724871 -0.228185 37.742367 -2.359355 -2.816025 -26.663183 -6.940863 -4.725672 
-1.600803 42.586815 2.492909 10.664356 0.422266 -0.525884 -17.484625 -1.229524 1.715305 26.515165 -0.585481 0.508601 -18.626040 1.008712 -0.437562 -1.078289 4.979591 -0.161613 1.993405 -2.003458 -0.008156 -70.960571 11.132633 28.964869 -77.828659 -0.728189 -1.661050 -0.072219 0.063450 21.845722 -2.003062 1.991579 -0.506922 88.522011 -17.741354 8.132352 74.005363 0.219289 -0.729570 0.052920 -0.052895 25.478523 -21.312439 9.343168 1.042308 35.403446 2.843714 2.511733 -21.605988 16.163267 8.112903 -23.745335 -3.905613 -1.461340 37.692112 -2.255860 -2.861468 -26.809418 -6.212788 -4.381088 
-2.010950 42.411381 2.434778 11.338291 -0.478752 0.109004 -17.121122 -0.858629 1.123829 26.572287 0.069873 0.318162 -22.757368 0.972598 -0.564156 -2.323250 4.986153 -0.289161 1.993405 -2.003458 -0.008156 -69.896614 12.081469 30.531601 -80.740990 -0.743978 -1.709043 -0.073522 0.063957 20.673847 -2.003062 1.991579 -0.506922 88.602646 -20.170782 8.388669 77.287216 0.240774 -0.756610 0.066741 -0.071748 23.310562 -24.637714 10.985890 -0.621980 40.308411 2.614773 2.795191 -18.957262 13.502870 6.408506 -24.429373 -3.163524 -3.160441 37.943913 -2.167914 -2.905466 -27.052256 -6.466724 -4.597074 
-2.382210 42.218819 2.370719 11.878573 -1.395262 0.673195 -16.817156 -0.532836 0.620022 26.504671 0.419485 0.170191 -26.614466 0.846910 -0.687971 -3.529020 4.990567 -0.434019 1.993405 -2.003458 -0.008156 -68.923370 13.212105 31.968735 -83.887955 -0.758995 -1.765057 -0.075066 0.064519 19.296894 -2.003062 1.991579 -0.506922 88.663864 -22.823622 8.424677 80.901062 0.253555 -0.780298 0.069477 -0.072866 21.142588 -28.412064 12.409680 -2.626706 47.105385 2.259829 3.194818 -16.224657 10.106076 4.680644 -25.110657 -2.704344 -5.653135 38.402073 -2.083798 -2.984469 -27.308569 -6.518301 -4.676591 
-2.654574 42.042385 2.318014 12.069549 -2.196492 0.887852 -16.611675 -0.364964 0.323722 26.171959 0.140230 0.059175 -30.070967 0.718367 -0.728386 -4.685651 4.973640 -0.562699 1.993405 -2.003458 -0.008156 -68.002487 14.691150 33.385166 -87.269424 -0.771586 -1.820596 -0.073555 0.074314 17.968771 -2.003062 1.991579 -0.506922 88.642738 -25.625675 8.590877 84.729752 0.261032 -0.809550 0.071512 -0.073621 19.550791 -31.983870 13.444485 -4.534652 55.377670 1.743950 3.627545 -14.146077 6.616265 3.354837 -25.539198 -2.576622 -8.526528 38.954750 -2.031170 -3.032032 -27.539106 -5.584602 -4.190952 
-2.796622 41.900711 2.299508 11.898210 -2.704385 0.309034 -16.406481 -0.299776 0.322639 25.733673 -0.545423 0.059301 -33.057377 0.360134 -0.458989 -5.742866 4.800119 -0.589532 1.993405 -2.003458 -0.008156 -67.401695 16.276646 34.785816 -90.728752 -0.777533 -1.865245 -0.074838 0.074718 16.982445 -2.003062 1.991579 -0.506922 88.074142 -28.098221 9.351716 88.558594 0.275227 -0.842973 0.072204 -0.073863 19.013681 -34.955116 14.216740 -5.631388 64.858223 1.068046 4.024395 -13.190797 4.172676 2.487695 -25.594164 -2.607266 -10.785741 39.349976 -1.992289 -3.077780 -27.743616 -3.867440 -3.213659 
-2.829445 41.813183 2.330330 11.136678 -2.817117 -1.081962 -16.093821 -0.168892 0.615135 25.259087 -1.121684 0.203143 -35.440395 -0.389859 0.218868 -6.601354 4.375210 -0.505100 1.993405 -2.003458 -0.008156 -67.369232 17.657225 36.106998 -94.080711 -0.784067 -1.915767 -0.075705 0.074978 16.318382 -2.003062 1.991579 -0.506922 86.471062 -29.726540 10.990620 92.182503 0.288226 -0.900312 0.071349 -0.073563 19.677744 -36.703758 15.037208 -5.436540 74.775688 0.285313 4.334069 -13.212432 3.206911 2.086536 -24.948076 -2.655409 -11.774023 39.545418 -1.982395 -3.060048 -27.947186 -2.149583 -2.228757 
-2.785230 41.812683 2.422423 9.834352 -2.588405 -2.607159 -15.664141 -0.178656 0.889941 24.747751 -1.685165 0.326645 -37.448406 -1.023452 1.037550 -7.360833 3.893529 -0.345828 1.993405 -2.003458 -0.008156 -67.608376 18.640448 37.189278 -97.276489 -0.792328 -1.971381 -0.076588 0.075231 15.644555 -2.003062 1.991579 -0.506922 84.083107 -30.204086 13.508363 95.474121 0.293458 -0.930679 0.069552 -0.072895 21.083992 -37.369534 15.770019 -4.332627 84.362930 -0.565248 4.514376 -13.500937 3.119849 1.833429 -23.615747 -2.791075 -11.765304 39.522511 -2.044649 -3.062371 -28.148338 -1.005758 -1.484980 
-2.704241 41.920345 2.574086 8.639638 -2.268908 -3.450237 -15.342173 -0.395540 0.899532 24.396490 -2.330398 0.300572 -39.111858 -1.204908 1.770454 -8.062522 3.558320 -0.171316 1.993405 -2.003458 -0.008156 -67.832993 19.180540 38.034081 -100.462151 -0.787227 -2.031785 -0.077848 0.075572 14.687528 -2.003062 1.991579 -0.506922 81.418030 -29.577274 16.514790 98.638596 0.289913 -0.952787 0.072252 -0.063463 21.816414 -37.819431 16.278191 -3.177995 92.933563 -1.435212 4.615245 -13.617201 2.873664 1.566754 -22.038647 -3.017083 -11.575295 38.925308 -2.158198 -2.968229 -28.089758 -0.515668 -1.212481 
